<svg height="512" viewBox="0 0 60 60" width="512" xmlns="http://www.w3.org/2000/svg"><g id="Page-1" fill="none" fill-rule="evenodd"><g id="021---Old-Camera-With-Flash" fill="rgb(0,0,0)" fill-rule="nonzero"><path id="Shape" d="m43 0c-8.2110124-.0062263-15.2512479 5.86122081-16.7250068 13.9388937-1.473759 8.0776728 3.0408325 16.0532803 10.7250068 18.9471063v12.114h-2v-4c0-1.6568542-1.3431458-3-3-3h-1v-2c0-1.1045695-.8954305-2-2-2h-16c-1.1045695 0-2 .8954305-2 2v2h-2v-2c0-1.1045695-.8954305-2-2-2h-3c-1.1045695 0-2 .8954305-2 2v2.184c-1.19435086.4222546-1.99474861 1.5492146-2 2.816v16c0 1.6568542 1.34314575 3 3 3h29c1.6568542 0 3-1.3431458 3-3v-2h2v1c0 1.6568542 1.3431458 3 3 3h6c1.6568542 0 3-1.3431458 3-3v-23.114c7.6841743-2.893826 12.1987658-10.8694335 10.7250068-18.9471063-1.4737589-8.07767289-8.5139944-13.94512-16.7250068-13.9388937zm-14 40h-3.341l3.341-2.927zm-5-4h3.19l-3.19 2.794zm-11 0h9v4h-9zm-9 0h3v2h-3zm-1 4h8c0 1.1045695.8954305 2 2 2h16c1.1045695 0 2-.8954305 2-2h1c.5522847 0 1 .4477153 1 1v3h-23.184c-.41741137-1.1981296-1.54724207-2.0009455-2.816-2.0009455s-2.39858863.8028159-2.816 2.0009455h-2.184v-3c0-.5522847.44771525-1 1-1zm23 12c0 3.3137085-2.6862915 6-6 6s-6-2.6862915-6-6 2.6862915-6 6-6c3.3123376.0033074 5.9966926 2.6876624 6 6zm-18-7c0 .5522847-.44771525 1-1 1s-1-.4477153-1-1 .44771525-1 1-1 1 .4477153 1 1zm-5 13c-.55228475 0-1-.4477153-1-1v-11h2.184c.41741137 1.1981296 1.54724207 2.0009455 2.816 2.0009455s2.39858863-.8028159 2.816-2.0009455h4.91c-1.7321618 1.5127424-2.7260424 3.7002665-2.7260424 6s.9938806 4.4872576 2.7260424 6zm30-1c0 .5522847-.4477153 1-1 1h-6.726c1.7321618-1.5127424 2.7260424-3.7002665 2.7260424-6s-.9938806-4.4872576-2.7260424-6h7.726zm2-4v-6h2v6zm12 3c0 .5522847-.4477153 1-1 1h-6c-.5522847 0-1-.4477153-1-1v-22.495c2.6258286.6600048 5.3741714.6600048 8 0zm-4-24c-8.2842712 0-15-6.7157288-15-15 0-8.28427125 6.7157288-15 15-15s15 6.71572875 15 15c-.0093685 8.2803876-6.7196124 14.9906315-15 15z"/><path id="Shape" d="m43 10c-3.8659932 0-7 3.1340068-7 7s3.1340068 7 7 7 7-3.1340068 7-7c-.0044086-3.8641657-3.1358343-6.9955914-7-7zm0 12c-2.7614237 0-5-2.2385763-5-5s2.2385763-5 5-5 5 2.2385763 5 5c-.0033061 2.7600532-2.2399468 4.9966939-5 5z"/><path id="Shape" d="m43 14c-1.6568542 0-3 1.3431458-3 3 0 .5522847.4477153 1 1 1s1-.4477153 1-1 .4477153-1 1-1 1-.4477153 1-1-.4477153-1-1-1z"/><path id="Shape" d="m20 56c2.209139 0 4-1.790861 4-4s-1.790861-4-4-4-4 1.790861-4 4 1.790861 4 4 4zm0-6c1.1045695 0 2 .8954305 2 2s-.8954305 2-2 2-2-.8954305-2-2 .8954305-2 2-2z"/><circle id="Oval" cx="6" cy="52" r="1"/><path id="Shape" d="m42 37v17c0 .5522847.4477153 1 1 1s1-.4477153 1-1v-17c0-.5522847-.4477153-1-1-1s-1 .4477153-1 1z"/></g></g></svg>