<?xml version="1.0" encoding="UTF-8"?>
<!DOCTYPE svg PUBLIC "-//W3C//DTD SVG 1.1//EN" "http://www.w3.org/Graphics/SVG/1.1/DTD/svg11.dtd">
<!-- Creator: CorelDRAW 2020 (64-Bit) -->
<svg xmlns="http://www.w3.org/2000/svg" xml:space="preserve" width="2480px" height="3508px" version="1.1" style="shape-rendering:geometricPrecision; text-rendering:geometricPrecision; image-rendering:optimizeQuality; fill-rule:evenodd; clip-rule:evenodd"
viewBox="0 0 2480 3507.43"
 xmlns:xlink="http://www.w3.org/1999/xlink"
 xmlns:xodm="http://www.corel.com/coreldraw/odm/2003">
 <defs>
  <style type="text/css">
   <![CDATA[
    .str0 {stroke:#FEFEFE;stroke-width:2.36;stroke-miterlimit:22.9256}
    .fil0 {fill:#FEFEFE;fill-rule:nonzero}
   ]]>
  </style>
 </defs>
 <g id="Layer_x0020_1">
  <metadata id="CorelCorpID_0Corel-Layer"/>
  <path class="fil0 str0" d="M2073.23 753.84l-1666.46 0c-91.99,0.11 -166.53,74.65 -166.64,166.65l0 1333.16c0,55.22 44.77,99.99 99.99,99.99l699.91 0 0 199.97 -133.32 0c-55.22,0 -99.99,44.77 -99.99,99.99 0,55.22 44.77,99.99 99.99,99.99l666.58 0c55.22,0 99.99,-44.77 99.99,-99.99 0,-55.22 -44.77,-99.99 -99.99,-99.99l-133.32 0 0 -199.97 699.92 0c55.21,0 99.98,-44.77 99.98,-99.99l0 -1333.16c-0.11,-92 -74.65,-166.54 -166.64,-166.65l0 0zm-1766.44 166.65c0,-55.22 44.77,-99.99 99.98,-99.99l1666.46 0c55.21,0 99.98,44.77 99.98,99.99l0 1099.86 -1866.42 0 0 -1099.86zm1299.83 1733.11c0,18.41 -14.92,33.33 -33.33,33.33l-666.58 0c-18.41,0 -33.33,-14.92 -33.33,-33.33 0,-18.41 14.92,-33.33 33.33,-33.33l666.58 0c18.41,0 33.33,14.92 33.33,33.33zm-233.3 -99.99l-266.64 0 0 -199.97 266.64 0 0 199.97zm799.89 -299.96c0,18.41 -14.92,33.33 -33.32,33.33l-1799.78 0c-18.4,0 -33.32,-14.92 -33.32,-33.33l0 -166.64 1866.42 0 0 166.64zm0 0z"/>
  <path class="fil0" d="M2073.23 887.16l-1666.46 0c-18.4,0 -33.33,14.92 -33.33,33.33l0 999.87c0,18.41 14.93,33.33 33.33,33.33l1666.46 0c18.4,0 33.33,-14.93 33.33,-33.33l0 -999.87c0,-18.41 -14.93,-33.33 -33.33,-33.33zm-33.33 999.87l-1599.8 0 0 -933.21 1599.8 0 0 933.21zm0 0z"/>
  <path class="fil0" d="M673.41 1587.07l166.64 0 0 99.99c0,18.4 14.92,33.33 33.33,33.33 18.4,0 33.33,-14.93 33.33,-33.33l0 -99.99 66.66 0c18.4,0 33.33,-14.92 33.33,-33.33 0,-18.41 -14.93,-33.33 -33.33,-33.33l-66.66 0 0 -366.62c0,-18.41 -14.92,-33.33 -33.33,-33.33 -18.4,0 -33.33,14.93 -33.33,33.33l0 366.62 -166.64 0c-17.4,0.07 -31.9,-13.26 -33.33,-30.59l65.99 -329.36c2.8,-11.86 -1.09,-24.29 -10.16,-32.45 -9.05,-8.13 -21.82,-10.69 -33.33,-6.65 -11.49,4.03 -19.87,14.01 -21.84,26.04l-66.65 333.29c-0.43,2.1 -0.65,4.24 -0.67,6.39 0,55.22 44.77,99.99 99.99,99.99l0 0zm0 0z"/>
  <path class="fil0" d="M1140.01 1720.39l199.98 0c55.22,0 99.99,-44.77 99.99,-99.99l0 -399.95c0,-55.22 -44.77,-99.99 -99.99,-99.99l-199.98 0c-55.22,0 -99.99,44.77 -99.99,99.99l0 399.95c0,55.22 44.77,99.99 99.99,99.99l0 0zm-33.33 -499.94c0,-18.41 14.93,-33.33 33.33,-33.33l199.98 0c18.4,0 33.33,14.92 33.33,33.33l0 399.95c0,18.4 -14.93,33.33 -33.33,33.33l-199.98 0c-18.4,0 -33.33,-14.93 -33.33,-33.33l0 -399.95zm0 0z"/>
  <path class="fil0" d="M1606.62 1587.07l166.64 0 0 99.99c0,18.4 14.93,33.33 33.33,33.33 18.41,0 33.33,-14.93 33.33,-33.33l0 -99.99 66.66 0c18.41,0 33.33,-14.92 33.33,-33.33 0,-18.41 -14.92,-33.33 -33.33,-33.33l-66.66 0 0 -366.62c0,-18.41 -14.92,-33.33 -33.33,-33.33 -18.4,0 -33.32,14.93 -33.32,33.33l0 366.62 -166.65 0c-17.4,0.07 -31.9,-13.26 -33.33,-30.59l65.99 -329.36c2.91,-17.72 -8.74,-34.56 -26.35,-38.09 -17.6,-3.52 -34.84,7.55 -38.97,25.02l-66.66 333.3c-0.42,2.09 -0.65,4.24 -0.67,6.39 0,55.22 44.77,99.99 99.99,99.99l0 0zm0 0z"/>
 </g>
</svg>
