<?xml version="1.0" encoding="UTF-8"?>
<!DOCTYPE svg PUBLIC "-//W3C//DTD SVG 1.1//EN" "http://www.w3.org/Graphics/SVG/1.1/DTD/svg11.dtd">
<!-- Creator: CorelDRAW 2020 (64-Bit) -->
<svg xmlns="http://www.w3.org/2000/svg" xml:space="preserve" width="1234px" height="1275px" version="1.1" style="shape-rendering:geometricPrecision; text-rendering:geometricPrecision; image-rendering:optimizeQuality; fill-rule:evenodd; clip-rule:evenodd"
viewBox="0 0 1234 1275.06"
 xmlns:xlink="http://www.w3.org/1999/xlink"
 xmlns:xodm="http://www.corel.com/coreldraw/odm/2003">
 <defs>
  <style type="text/css">
   <![CDATA[
    .fil0 {fill:#FEFEFE;fill-rule:nonzero}
   ]]>
  </style>
 </defs>
 <g id="Layer_x0020_1">
  <metadata id="CorelCorpID_0Corel-Layer"/>
  <path class="fil0" d="M1128.5 463.8l-242.25 0 -3.11 -10.61 202.9 -248.49c7.46,-9.12 6.11,-22.56 -3.02,-30.01 -9.19,-7.48 -22.61,-6.1 -30.02,3.03l-184.39 225.82 -3.57 -12.18c-13.67,-46.61 -57.13,-79.17 -105.7,-79.17l-275.8 0c-48.57,0 -92.03,32.56 -105.7,79.17l-21.21 72.44 -211.95 0c-58.17,0 -105.48,47.31 -105.48,105.47l0 468.41c0,58.16 47.31,105.48 105.48,105.48l120 0 -79.26 97.07c-7.46,9.13 -6.11,22.57 3.02,30.02 3.96,3.23 8.75,4.81 13.48,4.81 6.19,0 12.33,-2.68 16.54,-7.85l101.3 -124.06 808.75 0c58.17,0 105.49,-47.31 105.49,-105.48l0 -468.4c0,-58.16 -47.32,-105.47 -105.5,-105.47l0 0zm-983.82 636.69c-34.62,0 -62.81,-28.18 -62.81,-62.8l0 -468.41c0,-34.63 28.19,-62.81 62.81,-62.81l227.92 0c9.48,0 17.82,-6.25 20.49,-15.33l25.71 -87.77c8.35,-28.56 34.98,-48.5 64.73,-48.5l275.81 0c29.75,0 56.38,19.94 64.73,48.5l11.8 40.27 -100.66 123.29c-33.77,-18.7 -72.53,-29.42 -113.78,-29.42 -129.93,0 -235.66,105.72 -235.66,235.66 0,58.21 21.33,111.45 56.42,152.61l-142.67 174.71 -154.84 0zm669.75 -327.32c0,106.4 -86.57,192.98 -193,192.98 -46.11,0 -88.47,-16.3 -121.7,-43.39l39 -47.76c22.59,18.38 51.37,29.44 82.69,29.44 72.38,0 131.29,-58.89 131.29,-131.27 0,-40.8 -18.73,-77.32 -48.04,-101.41l39.02 -47.78c43.15,35.42 70.74,89.13 70.74,149.19zm-281.59 0c0,-48.86 39.73,-88.61 88.59,-88.61 5.6,0 11.05,0.66 16.37,1.66l-98.31 120.39c-4.23,-10.33 -6.65,-21.6 -6.65,-33.44zm177.2 0c0,48.85 -39.75,88.6 -88.61,88.6 -21.11,0 -40.26,-7.73 -55.49,-20.1l111.52 -136.58c19.73,16.27 32.58,40.57 32.58,68.08l0 0zm-42.89 -122.9c-14.26,-5.32 -29.62,-8.38 -45.72,-8.38 -72.38,0 -131.27,58.89 -131.27,131.27 0,25.47 7.41,49.2 20.02,69.35l-40.45 49.54c-25.77,-32.81 -41.28,-74.03 -41.28,-118.89 0,-106.41 86.57,-192.99 192.98,-192.99 30.99,0 60.2,7.52 86.18,20.55l-40.46 49.55zm524.18 387.42c0,34.62 -28.19,62.8 -62.82,62.8l-773.9 0 118.16 -144.7c40.59,33.1 92.33,53.02 148.66,53.02 129.95,0 235.68,-105.71 235.68,-235.65 0,-73.35 -33.72,-138.97 -86.44,-182.22l80 -97.98c3.23,8.01 10.82,13.5 19.61,13.5l258.23 0c34.63,0 62.82,28.18 62.82,62.81l0 468.42 0 0z"/>
  <path class="fil0" d="M1084.65 546.89l-106.68 0c-11.79,0 -21.34,9.55 -21.34,21.33l0 64.01c0,11.78 9.55,21.34 21.34,21.34l106.68 0c11.79,0 21.33,-9.56 21.33,-21.34l0 -64.01c0,-11.78 -9.54,-21.33 -21.33,-21.33zm-21.34 64.01l-64.01 0 0 -21.34 64.01 0 0 21.34z"/>
  <path class="fil0" d="M231.22 568.22c-47.07,0 -85.35,38.29 -85.35,85.35l0 298.7c0,47.05 38.28,85.34 85.35,85.34 47.06,0 85.34,-38.29 85.34,-85.34l0 -298.7c0,-47.06 -38.28,-85.35 -85.34,-85.35zm42.67 384.05c0,23.53 -19.15,42.67 -42.67,42.67 -23.52,0 -42.67,-19.14 -42.67,-42.67l0 -298.7c0,-23.54 19.15,-42.67 42.67,-42.67 23.52,0 42.67,19.13 42.67,42.67l0 298.7z"/>
  <path class="fil0" d="M860.62 162.85c41.17,0 74.68,-33.51 74.68,-74.68 0,-41.17 -33.51,-74.68 -74.68,-74.68 -41.17,0 -74.67,33.51 -74.67,74.68 0,41.17 33.5,74.68 74.67,74.68zm0 -106.68c17.65,0 32.01,14.35 32.01,32 0,17.65 -14.36,32 -32.01,32 -17.65,0 -32,-14.35 -32,-32 0,-17.65 14.35,-32 32,-32z"/>
  <path class="fil0" d="M241.89 397.54c41.17,0 74.67,-33.5 74.67,-74.68 0,-41.17 -33.5,-74.67 -74.67,-74.67 -41.18,0 -74.68,33.5 -74.68,74.67 0,41.18 33.5,74.68 74.68,74.68zm0 -106.68c17.65,0 32,14.35 32,32 0,17.65 -14.35,32.01 -32,32.01 -17.65,0 -32.01,-14.36 -32.01,-32.01 0,-17.65 14.36,-32 32.01,-32z"/>
  <path class="fil0" d="M1205.37 410.79c13.21,-1.86 22.41,-14.08 20.55,-27.29 -1.86,-13.21 -14.08,-22.41 -27.3,-20.55 -13.21,1.86 -22.41,14.08 -20.55,27.29 1.86,13.21 14.08,22.41 27.3,20.55z"/>
  <path class="fil0" d="M458.61 48.08c13.22,-1.86 22.42,-14.08 20.56,-27.29 -1.87,-13.21 -14.09,-22.41 -27.3,-20.55 -13.21,1.86 -22.41,14.08 -20.55,27.29 1.86,13.22 14.08,22.42 27.29,20.55z"/>
  <path class="fil0" d="M84.64 142.45c4.16,4.16 9.62,6.25 15.08,6.25 5.46,0 10.92,-2.09 15.08,-6.25 8.34,-8.33 8.34,-21.84 0,-30.17l-24.1 -24.11 24.1 -24.11c8.34,-8.33 8.34,-21.84 0,-30.17 -8.33,-8.33 -21.83,-8.33 -30.16,0l-24.11 24.11 -24.11 -24.11c-8.33,-8.33 -21.84,-8.33 -30.17,0 -8.33,8.33 -8.33,21.84 0,30.17l24.11 24.11 -24.11 24.11c-8.33,8.33 -8.33,21.84 0,30.17 4.16,4.16 9.63,6.25 15.08,6.25 5.46,0 10.92,-2.09 15.09,-6.25l24.11 -24.11 24.11 24.11z"/>
 </g>
</svg>
